<svg width="64" height="64" viewBox="0 0 64 64" fill="none" xmlns="http://www.w3.org/2000/svg">
<path d="M29.0908 24.7272V27.6364H26.1816V32H29.0908V45.0909H34.9089V32H38.778L39.2725 27.6364H34.9089V25.0909C34.9089 23.9127 35.0253 23.2872 36.8434 23.2872H39.2725V18.909H35.3744C30.7199 18.9091 29.0908 21.0909 29.0908 24.7272Z" fill="black"/>
<path d="M32 0C14.3269 0 0 14.3269 0 32C0 49.6731 14.3269 64 32 64C49.6731 64 64 49.6731 64 32C64 14.3269 49.6731 0 32 0ZM32 61.0909C15.9335 61.0909 2.90913 48.0665 2.90913 32C2.90913 15.9335 15.9335 2.90913 32 2.90913C48.0665 2.90913 61.0909 15.9335 61.0909 32C61.0909 48.0665 48.0665 61.0909 32 61.0909Z" fill="black"/>
</svg>
