<svg width="64" height="64" viewBox="0 0 64 64" fill="none" xmlns="http://www.w3.org/2000/svg">
<path d="M32 0C14.3269 0 0 14.3269 0 32C0 49.6731 14.3269 64 32 64C49.6731 64 64 49.6731 64 32C64 14.3269 49.6731 0 32 0ZM32 61.0909C15.9335 61.0909 2.90913 48.0665 2.90913 32C2.90913 15.9335 15.9335 2.90913 32 2.90913C48.0665 2.90913 61.0909 15.9335 61.0909 32C61.0909 48.0665 48.0665 61.0909 32 61.0909Z" fill="black"/>
<path d="M40.7272 17.4545H23.2727C20.0595 17.4545 17.4546 20.0594 17.4546 23.2726V40.7271C17.4546 43.9404 20.0595 46.5452 23.2727 46.5452H40.7272C43.9405 46.5452 46.5453 43.9404 46.5453 40.7271V23.2727C46.5455 20.0594 43.9406 17.4545 40.7272 17.4545ZM37.8181 21.8181H42.1817V26.1817H37.8181V21.8181ZM32 26.1819C35.2132 26.1819 37.8181 28.7867 37.8181 32C37.8181 35.2132 35.2132 37.8181 32 37.8181C28.7867 37.8181 26.1818 35.2132 26.1818 32C26.1818 28.7867 28.7867 26.1819 32 26.1819ZM43.6363 40.7272C43.6363 42.3339 42.3338 43.6364 40.7272 43.6364H23.2727C21.6661 43.6364 20.3636 42.3339 20.3636 40.7272V30.5454H23.4181C22.5446 35.2855 25.679 39.8362 30.4191 40.7099C35.1592 41.5835 39.71 38.449 40.5836 33.7089C40.6875 33.1454 40.7356 32.573 40.7272 32C40.72 31.5119 40.6713 31.0254 40.5817 30.5455H43.6362V40.7272H43.6363Z" fill="black"/>
</svg>
