<svg width="64" height="64" viewBox="0 0 64 64" fill="none" xmlns="http://www.w3.org/2000/svg">
<path d="M23.2729 26.1819C24.8796 26.1819 26.182 24.8794 26.182 23.2727C26.182 21.6661 24.8796 20.3636 23.2729 20.3636C21.6662 20.3636 20.3638 21.6661 20.3638 23.2727C20.3638 24.8794 21.6662 26.1819 23.2729 26.1819Z" fill="black"/>
<path d="M26.1819 27.6364H20.3638V43.6364H26.1819V27.6364Z" fill="black"/>
<path d="M32 0C14.3269 0 0 14.3269 0 32C0 49.6731 14.3269 64 32 64C49.6731 64 64 49.6731 64 32C64 14.3269 49.6731 0 32 0ZM32 61.0909C15.9335 61.0909 2.90913 48.0665 2.90913 32C2.90913 15.9335 15.9335 2.90913 32 2.90913C48.0665 2.90913 61.0909 15.9335 61.0909 32C61.0909 48.0665 48.0665 61.0909 32 61.0909Z" fill="black"/>
<path d="M39.7964 27.6364C35.4328 27.6364 34.9092 30.2255 34.9092 30.2255V27.6364H29.0911V43.6364H34.9092V34.9091C34.9092 34.9091 34.9092 32 37.3819 32C38.8364 32 39.2728 33.2945 39.2728 34.9091V43.6364H45.0909V34.9091C45.0909 30.3564 43.1128 27.6364 39.7964 27.6364Z" fill="black"/>
</svg>
