<svg width="64" height="64" viewBox="0 0 64 64" fill="none" xmlns="http://www.w3.org/2000/svg">
<path d="M47.1999 20.8C46.0257 21.4957 44.742 21.9875 43.4035 22.2545C42.266 21.0615 40.6883 20.3883 39.0399 20.3926C35.7928 20.3683 33.132 22.964 33.0763 26.2108C33.0777 26.6615 33.1313 27.1106 33.2363 27.549C28.454 27.3233 23.9877 25.0954 20.9308 21.4109C20.4079 22.292 20.1269 23.2955 20.1163 24.32C20.1164 26.2954 21.1188 28.1356 22.7782 29.2073C21.8306 29.1764 20.9036 28.9223 20.0727 28.4654C20.0727 28.4654 20.0727 28.4654 20.0727 28.5381C20.0632 31.3752 22.0724 33.8183 24.8582 34.3563C23.9801 34.5904 23.0606 34.6251 22.1673 34.4581C22.9704 36.8614 25.2046 38.4946 27.7382 38.5309C25.6289 40.1711 23.0356 41.0662 20.3637 41.0764C19.8776 41.0759 19.3918 41.0467 18.9092 40.9891C21.6464 42.7206 24.8193 43.6388 28.0583 43.6364C37.2949 43.8051 44.9195 36.454 45.0883 27.2174C45.09 27.1195 45.091 27.0216 45.091 26.9236C45.091 26.6715 45.091 26.4194 45.091 26.1673C46.231 25.3317 47.2157 24.3029 48.0002 23.1273C46.9082 23.6054 45.7514 23.919 44.5674 24.0581C45.8125 23.3293 46.7488 22.1706 47.1999 20.8Z" fill="black"/>
<path d="M32 0C14.3269 0 0 14.3269 0 32C0 49.6731 14.3269 64 32 64C49.6731 64 64 49.6731 64 32C64 14.3269 49.6731 0 32 0ZM32 61.0909C15.9335 61.0909 2.90913 48.0665 2.90913 32C2.90913 15.9335 15.9335 2.90913 32 2.90913C48.0665 2.90913 61.0909 15.9335 61.0909 32C61.0909 48.0665 48.0665 61.0909 32 61.0909Z" fill="black"/>
</svg>
